<?xml version="1.0" standalone="no"?>
<!DOCTYPE svg PUBLIC "-//W3C//DTD SVG 20010904//EN"
 "http://www.w3.org/TR/2001/REC-SVG-20010904/DTD/svg10.dtd">
<svg version="1.0" xmlns="http://www.w3.org/2000/svg"
 width="521.000000pt" height="521.000000pt" viewBox="0 0 521.000000 521.000000"
 preserveAspectRatio="xMidYMid meet">
<metadata>
Created by potrace 1.11, written by Peter Selinger 2001-2013
</metadata>
<g transform="translate(0.000000,521.000000) scale(0.100000,-0.100000)"
fill="#000000" stroke="none">
<path d="M1458 4409 c-547 -67 -1010 -445 -1182 -963 -51 -153 -69 -268 -69
-436 -1 -241 43 -432 149 -641 238 -475 780 -920 1565 -1284 174 -81 518 -221
567 -231 29 -6 29 -6 97 148 393 891 543 1682 426 2250 -30 145 -67 253 -132
383 -194 394 -582 684 -1016 760 -112 20 -306 27 -405 14z m360 -822 c401
-140 544 -623 286 -966 -108 -144 -293 -234 -484 -234 -107 0 -174 15 -275 63
-350 167 -453 617 -212 935 76 101 197 179 331 216 101 27 253 21 354 -14z"/>
<path d="M3470 4409 c-218 -20 -459 -105 -643 -226 l-68 -45 43 -47 c195 -209
338 -494 397 -791 60 -305 53 -702 -19 -1095 -69 -370 -217 -832 -398 -1242
l-50 -112 92 33 c434 158 917 405 1249 639 543 382 834 773 923 1242 24 121
24 347 0 475 -69 384 -290 721 -615 939 -253 171 -601 258 -911 230z"/>
</g>
</svg>
