<svg xmlns="http://www.w3.org/2000/svg" viewBox="0 0 420 420"><defs><style>.cls-1{fill:#fff;}.cls-2{fill:#547fff;}.cls-3{fill:#ff30cb;}</style></defs><title>Asset 24</title><g id="Layer_2" data-name="Layer 2"><g id="Layer_1-2" data-name="Layer 1"><circle class="cls-1" cx="210" cy="210" r="210"/><path class="cls-2" d="M197.13,315.87a270.73,270.73,0,0,1-27.62-1.37c-1.88-18.36-7.4-98.67,34.38-140.46A75,75,0,0,1,310,280.11C280.4,309.67,232.29,315.87,197.13,315.87Z"/><path class="cls-1" d="M256.92,157.08a70,70,0,0,1,49.5,119.5c-12.73,12.73-30.53,22.08-52.9,27.81-16.83,4.31-35.8,6.49-56.39,6.49-9.55,0-17.58-.49-23-1-2-23.41-4.46-94.54,33.33-132.33a69.54,69.54,0,0,1,49.5-20.5m0-10a79.75,79.75,0,0,0-56.57,23.43C150.86,220,165,319,165,319a251.17,251.17,0,0,0,32.13,1.87c33.32,0,84.86-5.73,116.36-37.23a80,80,0,0,0-56.57-136.57Z"/><path class="cls-3" d="M165,312.62C150.67,301,90,248.07,90,189a75,75,0,0,1,150,0C240,248.07,179.33,301,165,312.62Z"/><path class="cls-1" d="M165,119a70.08,70.08,0,0,1,70,70c0,53.32-52.06,102-70,117.13C147,291,95,242.44,95,189a70.08,70.08,0,0,1,70-70m0-10a80,80,0,0,0-80,80c0,70,80,130,80,130s80-60,80-130a80,80,0,0,0-80-80Z"/><circle class="cls-1" cx="165" cy="189" r="30"/></g></g></svg>