<svg xmlns="http://www.w3.org/2000/svg" viewBox="0 0 251.92 211.87"><defs><style>.cls-1{fill:#547fff;}.cls-2{fill:#fff;}.cls-3{fill:#ff30cb;}</style></defs><title>Asset 22</title><g id="Layer_2" data-name="Layer 2"><g id="Layer_1-2" data-name="Layer 1"><path class="cls-1" d="M112.13,206.87a270.73,270.73,0,0,1-27.62-1.37c-1.88-18.36-7.4-98.67,34.38-140.46A75,75,0,1,1,225,171.11C195.4,200.67,147.29,206.87,112.13,206.87Z"/><path class="cls-2" d="M171.92,48.08a70,70,0,0,1,49.5,119.5c-12.73,12.73-30.53,22.08-52.9,27.81-16.83,4.31-35.8,6.49-56.39,6.49-9.55,0-17.58-.49-23-1-2-23.41-4.46-94.54,33.33-132.33a69.54,69.54,0,0,1,49.5-20.5m0-10a79.75,79.75,0,0,0-56.57,23.43C65.86,111,80,210,80,210a251.17,251.17,0,0,0,32.13,1.87c33.32,0,84.86-5.73,116.36-37.23A80,80,0,0,0,171.92,38.08Z"/><path class="cls-3" d="M80,203.62C65.67,192,5,139.07,5,80a75,75,0,0,1,150,0C155,139.07,94.33,192,80,203.62Z"/><path class="cls-2" d="M80,10a70.08,70.08,0,0,1,70,70c0,53.32-52.06,102-70,117.13C62,182,10,133.44,10,80A70.08,70.08,0,0,1,80,10M80,0A80,80,0,0,0,0,80c0,70,80,130,80,130s80-60,80-130A80,80,0,0,0,80,0Z"/><circle class="cls-2" cx="80" cy="80" r="30"/></g></g></svg>