<svg id="Layer_1" data-name="Layer 1" xmlns="http://www.w3.org/2000/svg" viewBox="0 0 280 280"><title>Artboard 1</title><path d="M139.92,247l0,.05Z"/><path d="M139.9,247l0,0Z"/><path d="M139.95,247.07Z"/><path d="M226.13,39.27a85.88,85.88,0,0,0-32.69-6.47H193a85.78,85.78,0,0,0-52.7,18.26A86,86,0,0,0,87.13,32.6H87a86.08,86.08,0,0,0-79.48,119C32.87,212.75,130.4,244.06,139.9,247c0,0,105.77-30.54,132.4-95.06A86.08,86.08,0,0,0,226.13,39.27ZM134.92,234.39c-24.57-8.57-97.54-37.67-117.88-86.7a75.75,75.75,0,1,1,140-58C177.34,138.71,146.27,211,134.92,234.39Zm128.4-86.6c-20,48.18-90.9,77.12-116.66,86.24,13.19-28.55,40.57-98.34,19.94-148.27A85.93,85.93,0,0,0,148,57.88a75,75,0,0,1,45-15h.31a75.76,75.76,0,0,1,70,104.87Z"/><path d="M139.9,247Z"/><circle cx="87.02" cy="118.69" r="33.13" transform="translate(-38.8 42.34) rotate(-22.5)"/></svg>