<svg xmlns="http://www.w3.org/2000/svg" viewBox="0 0 277.85 214"><defs><style>.cls-1{fill:#547fff;}.cls-2{fill:#fff;}.cls-3{fill:#ff30cb;}</style></defs><title>Asset 1</title><g id="Layer_2" data-name="Layer 2"><g id="Layer_1-2" data-name="Layer 1"><path class="cls-1" d="M141.43,208c-9.06-18-46.72-98.59-24.22-152.9A80.89,80.89,0,1,1,266.68,117C244.16,171.33,160.56,201.65,141.43,208Z"/><path class="cls-2" d="M192,.1v10a75.94,75.94,0,0,1,70.07,105c-20.37,49.17-93.79,78.31-118.08,86.76-11.2-23.16-42.51-95.67-22.15-144.85A75.71,75.71,0,0,1,192,10.1V.1m0,0a85.92,85.92,0,0,0-79.39,53C86,117.27,138.93,214,138.93,214s105.8-31,132.37-95.12A85.94,85.94,0,0,0,192,.1Z"/><path class="cls-3" d="M136.43,207.86c-19.13-6.32-102.75-36.68-125.25-91A80.89,80.89,0,1,1,160.65,55C183.16,109.32,145.49,189.87,136.43,207.86Z"/><path class="cls-2" d="M85.88,10A75.7,75.7,0,0,1,156,56.87c20.37,49.17-10.95,121.69-22.15,144.85C109.59,193.26,36.17,164.13,15.8,115A75.94,75.94,0,0,1,85.88,10h0m0-10A85.94,85.94,0,0,0,6.56,118.78c26.56,64.13,132.37,95.12,132.37,95.12S191.83,117.17,165.26,53A85.91,85.91,0,0,0,85.88,0Z"/><circle class="cls-2" cx="85.91" cy="85.91" r="33.02" transform="translate(-26.34 39.42) rotate(-22.5)"/></g></g></svg>