<svg xmlns="http://www.w3.org/2000/svg" viewBox="0 0 269.8 207.8">
  <defs>
    <style>
      .cls-1{fill:#fff;}
    </style>
  </defs>
  <g id="Layer_2" data-name="Layer 2">
    <g id="Layer_1-2" data-name="Layer 1">
      <path d="M137.4 201.7C128.4 184 92.2 106 114 53.5a78.4 78.4 0 0 1 144.8 60c-21.8 52.6-102.6 82-121.4 88.2z" class="cls-1"/>
      <path d="M186.4 10a73.4 73.4 0 0 1 67.8 101.6c-19.7 47.5-90.5 75.7-114.3 84a330.3 330.3 0 0 1-18-45.5c-8.7-27-16-65-3.8-94.2a73.2 73.2 0 0 1 68-45.5m0-10a83.4 83.4 0 0 0-77 51.7c-26 62 25.5 156 25.5 156s102.5-30 128.3-92.5A83.4 83.4 0 0 0 186.5 0z"/>
      <path d="M132.4 201.6C113.6 195.4 32.8 166 11 113.4a78.4 78.4 0 1 1 144.8-60c21.8 52.6-14.5 130.6-23.4 148.2z" class="cls-1"/>
      <path d="M83.4 10a73.2 73.2 0 0 1 67.8 45.3c19.7 47.5-10.4 117.5-21.4 140.2-23.8-8.3-94.5-36.5-114.2-84A73.4 73.4 0 0 1 83.4 10m0-10a83.4 83.4 0 0 0-77 115.3C32.2 177.6 135 207.7 135 207.7s51.2-94 25.5-156.2A83.4 83.4 0 0 0 83.5 0z"/>
      <circle cx="83.4" cy="83.4" r="32.1" transform="rotate(-22.5 83.413 83.41)"/>
    </g>
  </g>
</svg>
