<svg xmlns="http://www.w3.org/2000/svg" viewBox="0 0 279.77 217.94"><defs><style>.cls-1{fill:#fff;}</style></defs><title>Asset 4</title><g id="Layer_2" data-name="Layer 2"><g id="Layer_1-2" data-name="Layer 1"><path class="cls-1" d="M273,54.68A88.48,88.48,0,0,0,191.37.1,89,89,0,0,0,140,16.58,88.18,88.18,0,0,0,93.36.14V0h-10V.14A88.45,88.45,0,0,0,6.73,122.24c11.15,26.92,36.79,51.16,76.21,72a336.56,336.56,0,0,0,53.45,22.57l3.63,1.1,3.19-1a336.39,336.39,0,0,0,53.58-22.61c39.42-20.87,65.05-45.1,76.21-72A87.82,87.82,0,0,0,273,54.68ZM132.22,194.27A327,327,0,0,1,92.3,176.59c-24.2-12.81-55.47-34-67.09-62A68.44,68.44,0,0,1,88.36,20h0a68.22,68.22,0,0,1,63.21,42.24C169.49,105.49,143.5,169.93,132.22,194.27Zm23.23-3a338.83,338.83,0,0,0,11.65-31.9c13.11-42.63,14.11-77.89,3-104.82a88.71,88.71,0,0,0-14.9-24.16,68.42,68.42,0,0,1,99.37,84.25C238.24,154,183.6,180.12,155.45,191.31Z"/><circle class="cls-1" cx="88.39" cy="88.41" r="32.06" transform="translate(-27.11 40.56) rotate(-22.5)"/></g></g></svg>