<svg version="1" xmlns="http://www.w3.org/2000/svg" width="1344" height="1344" viewBox="0 0 1008.000000 1008.000000"><path d="M299.1 121.1c-23.4 1.8-51 7.7-73.1 15.5-27.2 9.8-59.1 27.7-82 46.2-12.2 9.9-31.3 29-41.2 41.2-24.6 30.6-43.9 68.7-53.4 105.9-9.9 38.6-11.6 76.7-5.3 119.6C58.7 549.9 116 656.4 214 765.5c25.4 28.3 65.6 67.6 95.8 93.8l10.2 8.9 10.7-9.4c41.8-36.3 87.8-83.2 122.9-125.4 26-31.2 54.3-70.9 74.5-104.4 11.5-19.1 30.6-56.8 38.3-75.5 29.3-71.2 39.3-138.6 29.6-198.3-7.7-47.3-28.5-93.7-58.8-131.2-9.9-12.2-29-31.3-41.2-41.2-55.4-44.7-126.8-67.1-196.9-61.7zm50 162.2c43.9 11.5 75.7 43.3 87.7 87.6 2.4 8.8 2.6 11.3 2.6 29.1s-.2 20.3-2.6 29.1c-12 44.3-43.4 75.7-87.7 87.7-8.8 2.4-11.3 2.6-29.1 2.6s-20.3-.2-29.1-2.6c-44.3-12-76.2-43.9-87.6-87.7-3.1-11.9-4.2-33.6-2.4-46.1 6.6-45.1 37.9-82.6 81-97 14.5-4.9 22.6-6 41.1-5.6 13.6.3 18.2.8 26.1 2.9z"/><path d="M665.5 273.6c-1.6.2-7.3.9-12.5 1.5-8.2.9-34 5.5-34.7 6.2-.1.2 1.8 6.1 4.3 13.2 8.1 23.4 13.9 49.6 16.4 74.4 1.3 13.3 1.3 50.5 0 64.6-5.4 57.7-21.9 112.1-52.6 173.5-45.4 90.8-119.3 184.1-212.8 268.5l-8.8 8 5.8.7c26.1 2.9 106.6 3.4 144.9.8 139.2-9.4 246.9-41.9 326.5-98.6 60-42.7 99.3-98.3 116-163.9 12.6-49.4 11.7-102.9-2.6-150.4-13.5-44.7-36.7-83.5-69.8-116.7-23.1-23.1-43.6-38.1-71.4-52.2-31.8-16.2-64.3-25.6-100.1-29.2-9.5-.9-41.6-1.2-48.6-.4z"/></svg>