<svg xmlns="http://www.w3.org/2000/svg" viewBox="0 0 251.92 211.87"><defs><style>.cls-1{fill:#fff;}</style></defs><title>Asset 21</title><g id="Layer_2" data-name="Layer 2"><g id="Layer_1-2" data-name="Layer 1"><path class="cls-1" d="M228.49,61.51a79.92,79.92,0,0,0-78.55-20.34A80,80,0,0,0,0,80c0,70,80,130,80,130a251.16,251.16,0,0,0,32.13,1.87c33.32,0,84.86-5.73,116.36-37.23A80,80,0,0,0,228.49,61.51ZM10,80a70,70,0,0,1,140,0c0,53.32-52.06,102-70,117.13C62,182,10,133.44,10,80Zm211.42,87.57c-12.73,12.73-30.53,22.08-52.9,27.81-16.83,4.31-35.8,6.49-56.39,6.49-8.61,0-16-.4-21.34-.82C112.62,181.81,160,133.87,160,80a79.74,79.74,0,0,0-5.71-29.67,70,70,0,0,1,67.13,117.24Z"/><circle class="cls-1" cx="80" cy="80" r="30"/></g></g></svg>