<svg xmlns="http://www.w3.org/2000/svg" viewBox="0 0 231.89 191.87"><defs><style>.cls-1{fill:#fff;}</style></defs><title>Asset 19</title><g id="Layer_2" data-name="Layer 2"><g id="Layer_1-2" data-name="Layer 1"><path class="cls-1" d="M211.42,58.58a69.54,69.54,0,0,0-49.5-20.5,70.41,70.41,0,0,0-17.64,2.24A79.74,79.74,0,0,1,150,70c0,53.87-47.38,101.81-69.21,121,5.36.42,12.73.82,21.34.82,20.58,0,39.55-2.18,56.39-6.49,22.38-5.72,40.18-15.08,52.9-27.81A70.08,70.08,0,0,0,211.42,58.58Z"/><path class="cls-1" d="M70,0A70.08,70.08,0,0,0,0,70c0,53.44,52,102,70,117.13C87.94,172,140,123.32,140,70A70.08,70.08,0,0,0,70,0Zm0,100a30,30,0,1,1,30-30A30,30,0,0,1,70,100Z"/></g></g></svg>